# xmcd
# 
# Track frame offsets:
#     150
#     11300
#     22713
#     29708
#     42377
#     54995
#     65465
#     80377
#     97278
#     106497
#     115729
#     125245
#     139154
#     151223
#     161262
#     172338
# 
# Disc length: 2403
# 
# Revision: 0
# Processed by: cddbd v1.5.2PL0 Copyright (c) Steve Scherf et al.
# Submitted via: fre:ac v1.0.17
# 
DISCID=d3096110
DTITLE=Snook Eaglin - Blues from new orleans vol. 1
DYEAR=0
DGENRE=Blues
TTITLE0=Careless Love
TTITLE1=Come back baby baby
TTITLE2=High society
TTITLE3=Let me gome home whiskey
TTITLE4=Trouble in mind
TTITLE5=St. James Infirmary
TTITLE6=I got my questionaire
TTITLE7=The drifter blues
TTITLE8=Rock islind line
TTITLE9=Every day I have the blues
TTITLE10=Sophisticated blues
TTITLE11=See see rider
TTITLE12=One scotch one bourbone
TTITLE13=A thousand miles from home
TTITLE14=I am lookin' for a woman
TTITLE15=Look down that lonesome road
EXTD=
EXTT0=
EXTT1=
EXTT2=
EXTT3=
EXTT4=
EXTT5=
EXTT6=
EXTT7=
EXTT8=
EXTT9=
EXTT10=
EXTT11=
EXTT12=
EXTT13=
EXTT14=
EXTT15=
PLAYORDER=
